<?xml version="1.0" encoding="iso-8859-1"?>
<!-- Uploaded to: SVG Repo, www.svgrepo.com, Generator: SVG Repo Mixer Tools -->
<svg height="800px" width="800px" version="1.1" id="Layer_1" xmlns="http://www.w3.org/2000/svg" xmlns:xlink="http://www.w3.org/1999/xlink" 
	 viewBox="0 0 483.2 483.2" xml:space="preserve">
<g>
	<path style="fill:#4F4F4F;" d="M242,330.4c42.4,0,80-34.4,80-77.6V77.6C322,35.2,284.4,0,242,0s-80,34.4-80,77.6v175.2
		C162,295.2,199.6,330.4,242,330.4z M202,77.6c0-21.6,18.4-39.2,40-39.2s40,17.6,40,39.2v175.2c0,21.6-18.4,39.2-40,39.2
		s-40-17.6-40-39.2V77.6z"/>
	<path style="fill:#4F4F4F;" d="M258,410.4c80-9.6,142.4-76.8,142.4-158.4c0-10.4-8-19.2-18.4-19.2s-18.4,8.8-18.4,19.2
		c0,67.2-54.4,121.6-121.6,121.6s-121.6-55.2-121.6-122.4c0-10.4-8.8-19.2-19.2-19.2s-17.6,8.8-17.6,19.2
		c0,81.6,62.4,149.6,142.4,158.4V444c0,1.6-3.2-1.6-2.4,6.4h-24c-10.4,0-19.2,5.6-19.2,16c0,10.4,8.8,16,19.2,16h84.8
		c10.4,0,19.2-5.6,19.2-16c0-10.4-8.8-16-19.2-16h-24c0-8-2.4-5.6-2.4-6.4L258,410.4L258,410.4z"/>
</g>
<g>
	<path style="fill:#686868;" d="M303.6,467.2c0-10.4-8.8-16-19.2-16h-24c0-8-2.4-5.6-2.4-6.4v-34.4c48-5.6,91.2-32.8,116-71.2
		l-27.2-28c-20.8,36.8-60,62.4-105.6,62.4c-67.2,0-121.6-54.4-121.6-121.6c0-10.4-8.8-19.2-19.2-19.2s-17.6,8.8-17.6,19.2
		c0,81.6,62.4,149.6,142.4,158.4v34.4c0,1.6-3.2-1.6-2.4,6.4h-24c-10.4,0-19.2,5.6-19.2,16c0,10.4,8.8,16,19.2,16h84.8
		C294.8,483.2,303.6,477.6,303.6,467.2z"/>
	<path style="fill:#686868;" d="M315.6,278.4L282,244v8c0,21.6-18.4,39.2-40,39.2s-40-17.6-40-39.2v-86.4l-40-38.4v125.6
		c0,42.4,36,77.6,79.2,77.6C274.8,330.4,305.2,308,315.6,278.4z"/>
</g>
</svg>